# xmcd CD database file
#
# Track frame offsets:
#	150
#	24756
#	55979
#	82440
#	113247
#	150248
#	173390
#	203749
#
# Disc length: 3033 seconds
#
# Revision: 0
# Processed by: cddbd v1.5.2PL0 Copyright (c) Steve Scherf et al.
# Submitted via: CDex 1.70beta2
#
DISCID=570bd708
DTITLE=Gabriel Amargant - First Station
DYEAR=2008
DGENRE=Jazz
TTITLE0=80's Blues
TTITLE1=First Love
TTITLE2=When Homer Goes to Madrid
TTITLE3=I remember Iaia
TTITLE4=8-22
TTITLE5=Charade
TTITLE6=I Wish You Love
TTITLE7=Es nin
EXTD=YEAR: 2008
EXTT0=
EXTT1=
EXTT2=
EXTT3=
EXTT4=
EXTT5=
EXTT6=
EXTT7=
PLAYORDER=
